<?xml version="1.0" encoding="UTF-8" standalone="no"?>
<!DOCTYPE svg PUBLIC "-//W3C//DTD SVG 1.1//EN" "http://www.w3.org/Graphics/SVG/1.1/DTD/svg11.dtd">
<svg width="100%" height="100%" viewBox="0 0 774 179" version="1.1" xmlns="http://www.w3.org/2000/svg" xmlns:xlink="http://www.w3.org/1999/xlink" xml:space="preserve" xmlns:serif="http://www.serif.com/" style="fill-rule:evenodd;clip-rule:evenodd;stroke-linejoin:round;stroke-miterlimit:2;">
    <g transform="matrix(1,0,0,1,-1066.33,-2711.08)">
        <g transform="matrix(4.80331,0,0,4.80331,-4483.32,-3150.17)">
            <g transform="matrix(50,0,0,50,1155.28,1256.8)">
                <path d="M0.364,-0L0.33,-0.185L0.186,-0.185L0.151,-0L0.002,-0L0.12,-0.612L0.13,-0.66L0.131,-0.664C0.137,-0.685 0.148,-0.701 0.165,-0.712C0.181,-0.724 0.204,-0.729 0.235,-0.729L0.28,-0.729C0.309,-0.729 0.333,-0.724 0.349,-0.712C0.367,-0.701 0.378,-0.685 0.385,-0.664L0.395,-0.612L0.513,-0L0.364,-0ZM0.269,-0.579C0.267,-0.591 0.264,-0.598 0.261,-0.6C0.258,-0.603 0.254,-0.602 0.251,-0.596L0.246,-0.579L0.198,-0.302L0.318,-0.302L0.269,-0.579Z" style="fill:rgb(235,235,235);fill-rule:nonzero;"/>
            </g>
            <g transform="matrix(50,0,0,50,1180.98,1256.8)">
                <path d="M0.308,-0L0.054,-0L0.054,-0.123L0.281,-0.123C0.315,-0.123 0.332,-0.14 0.332,-0.175L0.332,-0.219C0.332,-0.239 0.33,-0.252 0.325,-0.259C0.32,-0.266 0.308,-0.273 0.288,-0.28L0.259,-0.29L0.252,-0.293L0.21,-0.307L0.2,-0.31L0.125,-0.335L0.117,-0.338C0.062,-0.358 0.035,-0.399 0.035,-0.46L0.035,-0.588C0.035,-0.631 0.048,-0.663 0.074,-0.686C0.1,-0.709 0.139,-0.72 0.192,-0.72L0.439,-0.72L0.439,-0.597L0.235,-0.597C0.217,-0.597 0.204,-0.594 0.197,-0.588C0.189,-0.583 0.184,-0.574 0.182,-0.561L0.182,-0.518C0.182,-0.498 0.187,-0.483 0.196,-0.475C0.205,-0.466 0.226,-0.457 0.259,-0.447L0.305,-0.433L0.334,-0.424L0.349,-0.419L0.393,-0.403C0.426,-0.391 0.449,-0.375 0.462,-0.357C0.475,-0.339 0.482,-0.313 0.482,-0.279L0.482,-0.144C0.482,-0.099 0.467,-0.064 0.438,-0.039C0.408,-0.013 0.365,-0 0.308,-0Z" style="fill:rgb(235,235,235);fill-rule:nonzero;"/>
            </g>
            <g transform="matrix(50,0,0,50,1206.83,1256.8)">
                <path d="M0.59,-0L0.59,-0.538C0.59,-0.557 0.586,-0.572 0.579,-0.582C0.572,-0.592 0.563,-0.598 0.552,-0.599C0.541,-0.601 0.533,-0.602 0.529,-0.602L0.522,-0.602C0.485,-0.602 0.467,-0.581 0.467,-0.538L0.467,-0L0.324,-0L0.324,-0.538C0.324,-0.581 0.306,-0.602 0.269,-0.602C0.261,-0.602 0.255,-0.602 0.25,-0.601C0.217,-0.596 0.201,-0.575 0.201,-0.538L0.201,-0L0.054,-0L0.054,-0.556C0.054,-0.609 0.066,-0.649 0.089,-0.676C0.112,-0.703 0.149,-0.719 0.201,-0.726C0.208,-0.727 0.218,-0.728 0.231,-0.729C0.244,-0.73 0.251,-0.73 0.252,-0.73C0.289,-0.73 0.318,-0.724 0.341,-0.711C0.363,-0.698 0.38,-0.678 0.391,-0.653L0.396,-0.64L0.4,-0.653C0.411,-0.678 0.427,-0.697 0.45,-0.71C0.473,-0.723 0.503,-0.73 0.542,-0.73C0.557,-0.73 0.574,-0.729 0.592,-0.727C0.643,-0.72 0.68,-0.703 0.703,-0.676C0.726,-0.649 0.737,-0.61 0.737,-0.557L0.737,-0L0.59,-0Z" style="fill:rgb(235,235,235);fill-rule:nonzero;"/>
            </g>
            <g transform="matrix(50,0,0,50,1246.38,1256.8)">
                <path d="M0.282,0.008L0.227,0.008C0.16,0.008 0.113,-0.005 0.086,-0.032C0.059,-0.059 0.045,-0.1 0.045,-0.157L0.045,-0.274C0.045,-0.336 0.067,-0.373 0.112,-0.386L0.128,-0.39L0.114,-0.395C0.094,-0.405 0.081,-0.417 0.075,-0.432C0.068,-0.447 0.065,-0.472 0.065,-0.507L0.065,-0.599C0.065,-0.637 0.072,-0.665 0.086,-0.683C0.101,-0.7 0.128,-0.713 0.168,-0.722L0.198,-0.727C0.209,-0.728 0.221,-0.729 0.235,-0.73C0.249,-0.731 0.261,-0.731 0.272,-0.731C0.335,-0.731 0.38,-0.72 0.406,-0.699C0.431,-0.678 0.444,-0.645 0.444,-0.6L0.444,-0.507C0.444,-0.47 0.441,-0.445 0.435,-0.432C0.429,-0.418 0.416,-0.406 0.395,-0.395L0.381,-0.39L0.397,-0.386C0.442,-0.373 0.464,-0.336 0.464,-0.274L0.464,-0.157C0.464,-0.1 0.45,-0.059 0.423,-0.032C0.396,-0.005 0.349,0.008 0.282,0.008ZM0.313,-0.57C0.313,-0.585 0.311,-0.595 0.307,-0.601C0.303,-0.608 0.296,-0.612 0.286,-0.614L0.277,-0.616L0.231,-0.616L0.222,-0.614C0.205,-0.611 0.196,-0.603 0.196,-0.591L0.196,-0.493C0.196,-0.459 0.209,-0.442 0.236,-0.442L0.274,-0.442C0.3,-0.442 0.313,-0.459 0.313,-0.493L0.313,-0.57ZM0.326,-0.281C0.326,-0.31 0.314,-0.326 0.291,-0.331L0.219,-0.331C0.195,-0.326 0.183,-0.31 0.183,-0.281L0.183,-0.177C0.183,-0.163 0.184,-0.153 0.185,-0.148C0.186,-0.143 0.19,-0.138 0.196,-0.131C0.201,-0.124 0.208,-0.118 0.216,-0.115C0.224,-0.111 0.234,-0.109 0.246,-0.109L0.263,-0.109C0.276,-0.109 0.286,-0.111 0.293,-0.114C0.3,-0.117 0.306,-0.121 0.312,-0.128C0.317,-0.135 0.321,-0.142 0.323,-0.149C0.325,-0.156 0.326,-0.165 0.326,-0.177L0.326,-0.281Z" style="fill:rgb(235,235,235);fill-rule:nonzero;"/>
            </g>
            <g transform="matrix(50,0,0,50,1271.98,1256.8)">
                <path d="M0.299,0.011L0.215,0.011C0.147,0.011 0.101,-0.001 0.078,-0.026C0.055,-0.051 0.043,-0.096 0.043,-0.161L0.043,-0.559C0.043,-0.624 0.055,-0.669 0.078,-0.694C0.101,-0.719 0.146,-0.731 0.214,-0.731L0.299,-0.731C0.366,-0.731 0.412,-0.719 0.435,-0.694C0.458,-0.669 0.47,-0.624 0.47,-0.559L0.47,-0.161C0.47,-0.096 0.459,-0.051 0.437,-0.028C0.413,-0.002 0.367,0.011 0.299,0.011ZM0.333,-0.543C0.333,-0.568 0.329,-0.585 0.32,-0.596C0.311,-0.607 0.296,-0.613 0.273,-0.616L0.24,-0.616C0.217,-0.613 0.201,-0.607 0.193,-0.597C0.184,-0.586 0.18,-0.568 0.18,-0.543L0.18,-0.178C0.18,-0.153 0.184,-0.135 0.193,-0.124C0.202,-0.113 0.217,-0.107 0.24,-0.104L0.273,-0.104C0.296,-0.107 0.312,-0.113 0.321,-0.124C0.329,-0.134 0.333,-0.152 0.333,-0.178L0.333,-0.543Z" style="fill:rgb(235,235,235);fill-rule:nonzero;"/>
            </g>
            <g transform="matrix(26.0237,0,0,26.0237,1297.58,1256.8)">
                <path d="M0.109,0L0.022,-0L0.158,-0.72L0.244,-0.72L0.109,0Z" style="fill:rgb(235,235,235);fill-rule:nonzero;"/>
            </g>
            <g transform="matrix(26.0237,0,0,26.0237,1304.5,1256.8)">
                <path d="M0.052,-0L0.052,-0.083L0.053,-0.1C0.053,-0.124 0.057,-0.145 0.064,-0.163C0.071,-0.181 0.083,-0.199 0.098,-0.218L0.104,-0.224L0.131,-0.256L0.273,-0.417L0.281,-0.427C0.303,-0.456 0.314,-0.486 0.314,-0.515L0.314,-0.567C0.314,-0.6 0.297,-0.616 0.262,-0.616C0.255,-0.616 0.247,-0.615 0.237,-0.614C0.227,-0.612 0.219,-0.608 0.213,-0.601C0.206,-0.594 0.203,-0.582 0.203,-0.565L0.203,-0.48L0.073,-0.48L0.073,-0.584C0.073,-0.633 0.085,-0.669 0.109,-0.693C0.133,-0.717 0.172,-0.729 0.227,-0.729L0.304,-0.729C0.361,-0.724 0.4,-0.711 0.423,-0.692C0.445,-0.672 0.456,-0.64 0.456,-0.595L0.456,-0.486C0.451,-0.448 0.436,-0.411 0.41,-0.375L0.398,-0.362L0.258,-0.201L0.238,-0.178L0.233,-0.171L0.223,-0.156C0.219,-0.151 0.216,-0.145 0.213,-0.138C0.21,-0.131 0.208,-0.126 0.207,-0.121L0.461,-0.121L0.461,-0L0.052,-0Z" style="fill:rgb(235,235,235);fill-rule:nonzero;"/>
            </g>
        </g>
    </g>
</svg>
